#!OML:ASF E:\acrobat2\Project_11_07_03\Capture day 1\Session 1\Acrobat.ASF
:FULLY-SPECIFIED
:DEGREES
27
root 12.0682 18.3141 27.5988 -174.747 0.582071 -178.787
lowerback -8.39441 0.780022 1.21263
upperback -5.05038 1.42355 -0.99966
thorax -0.4684 0.87152 -1.60092
lowerneck -2.3242 -1.76316 -1.63719
upperneck 0.420677 -2.41342 4.44957
head 0.600005 -1.19942 1.62568
rclavicle 1.83876e-015 7.95139e-016
rhumerus -46.5016 13.8061 -96.879
rradius 25.1523
rwrist 6.40057
rhand -4.43717 -42.9582
rfingers 7.12502
rthumb 21.3341 -71.8039
lclavicle 1.83876e-015 7.95139e-016
lhumerus -38.4193 -21.6066 97.9217
lradius 18.7272
lwrist 12.8609
lhand -8.41116 -10.0972
lfingers 7.12502
lthumb 17.5132 19.134
rfemur 2.7016 6.29783 24.1103
rtibia 1.65452
rfoot -17.9171 -14.5759
rtoes 8.80858
lfemur 0.473258 -1.15269 -18.2126
ltibia 4.16585
lfoot -5.57202 -7.46358
ltoes 32.7015
28
root 12.069 18.314 27.5989 -174.737 0.582509 -178.84
lowerback -8.40119 0.782822 1.15892
upperback -5.05247 1.4323 -1.04522
thorax -0.466425 0.87693 -1.61694
lowerneck -2.45099 -1.75153 -1.63637
upperneck 0.608389 -2.40348 4.46386
head 0.679935 -1.19081 1.62909
rclavicle -9.83984e-015 4.37326e-015
rhumerus -46.5206 13.7912 -96.938
rradius 25.1774
rwrist 6.43994
rhand -4.36764 -43.0341
rfingers 7.12502
rthumb 21.4009 -71.8722
lclavicle -9.83984e-015 4.37326e-015
lhumerus -38.6036 -21.8442 97.9595
lradius 18.7729
lwrist 13.0833
lhand -8.49193 -10.2364
lfingers 7.12502
lthumb 17.4355 19.0017
rfemur 2.68525 6.22781 24.0316
rtibia 1.66378
rfoot -17.8318 -14.5281
rtoes 9.24183
lfemur 0.43981 -1.13878 -18.2724
ltibia 4.1991
lfoot -5.58607 -7.51292
ltoes 33.0101
29
root 12.069 18.3128 27.5979 -174.737 0.59533 -178.941
lowerback -8.42782 0.800715 1.07487
upperback -5.0401 1.46234 -1.11401
thorax -0.437808 0.893227 -1.63749
lowerneck -2.52388 -1.78102 -1.60369
upperneck 0.765106 -2.44639 4.40897
head 0.741138 -1.20954 1.60443
rclavicle 1.37658e-014 -3.97569e-014
rhumerus -46.4753 13.712 -96.9788
rradius 25.1195
rwrist 6.4973
rhand -4.44695 -42.9377
rfingers 7.12502
rthumb 21.3247 -71.7844
lclavicle 1.37658e-014 -3.97569e-014
lhumerus -38.6475 -21.8285 97.8433
lradius 18.7022
lwrist 12.8412
lhand -8.44741 -10.4211
lfingers 7.12502
lthumb 17.4783 18.8131
rfemur 2.68753 6.08965 23.8889
rtibia 1.64981
rfoot -17.6833 -14.43
rtoes 9.22041
lfemur 0.471016 -1.16955 -18.4139
ltibia 4.16683
lfoot -5.55238 -7.50739
ltoes 33.6078
30
root 12.0686 18.3115 27.5964 -174.736 0.603486 -179.091
lowerback -8.4751 0.78214 0.909376
upperback -5.00666 1.44739 -1.16068
thorax -0.37973 0.888385 -1.59229
lowerneck -2.55591 -1.77043 -1.67732
upperneck 0.832733 -2.43275 4.46041
head 0.769408 -1.20138 1.63379
rclavicle 5.56597e-015 6.75868e-015
rhumerus -46.3355 13.6097 -96.9444
rradius 25.0259
rwrist 6.60672
rhand -4.582 -42.8142
rfingers 7.12502
rthumb 21.195 -71.6756
lclavicle 5.56597e-015 6.75868e-015
lhumerus -38.5298 -21.5287 97.5745
lradius 18.5671
lwrist 12.4964
lhand -8.36453 -10.4871
lfingers 7.12502
lthumb 17.5581 18.74
rfemur 2.69318 5.9723 23.6837
rtibia 1.63331
rfoot -17.6725 -14.3677
rtoes 8.68267
lfemur 0.498661 -1.17038 -18.6171
ltibia 4.10989
lfoot -5.52135 -7.46991
ltoes 33.6141
31
root 12.0693 18.3117 27.5965 -174.734 0.586906 -179.168
lowerback -8.47918 0.766677 0.807188
upperback -4.99237 1.43322 -1.18399
thorax -0.364538 0.882864 -1.55975
lowerneck -2.51979 -1.74572 -1.79379
upperneck 0.756061 -2.39839 4.60637
head 0.742617 -1.18543 1.70202
rclavicle -1.01877e-014 2.18663e-014
rhumerus -46.2411 13.5068 -96.9092
rradius 24.9859
rwrist 6.66957
rhand -4.63939 -42.7019
rfingers 7.12502
rthumb 21.1399 -71.5693
lclavicle -1.01877e-014 2.18663e-014
lhumerus -38.4366 -21.309 97.3767
lradius 18.4178
lwrist 12.3886
lhand -8.23189 -10.5609
lfingers 7.12502
lthumb 17.6857 18.6548
rfemur 2.69311 5.97747 23.5895
rtibia 1.64573
rfoot -17.7804 -14.3737
rtoes 8.6111
lfemur 0.479398 -1.10665 -18.7069
ltibia 4.1383
lfoot -5.4856 -7.48327
ltoes 33.2399
32
root 12.0703 18.3121 27.5963 -174.733 0.602403 -179.171
lowerback -8.46827 0.770374 0.788917
upperback -4.994 1.43932 -1.18288
thorax -0.372395 0.886198 -1.54811
lowerneck -2.50598 -1.70683 -1.97731
upperneck 0.735048 -2.34646 4.82101
head 0.738559 -1.15973 1.80461
rclavicle 0 1.98785e-014
rhumerus -46.2341 13.5269 -96.9388
rradius 25.0308
rwrist 6.6043
rhand -4.53239 -42.8155
rfingers 7.12502
rthumb 21.2426 -71.6715
lclavicle 0 1.98785e-014
lhumerus -38.4234 -21.1796 97.2781
lradius 18.312
lwrist 12.4099
lhand -8.10277 -10.5379
lfingers 7.12502
lthumb 17.81 18.6666
rfemur 2.69009 5.96658 23.5802
rtibia 1.65274
rfoot -17.7313 -14.3406
rtoes 8.97437
lfemur 0.485997 -1.09566 -18.7143
ltibia 4.14203
lfoot -5.47083 -7.46227
ltoes 33.1228
